<svg xmlns="http://www.w3.org/2000/svg" xmlns:xlink="http://www.w3.org/1999/xlink" width="1330px" height="870px" viewBox="0 0  1330 870" preserveAspectRatio="xMidYMid meet" ><rect id="svgEditorBackground" x="0" y="0" width="1330" height="870" style="fill: none; stroke: none;"/><defs id="svgEditorDefs"><linearGradient gradientUnits="objectBoundingBox" id="lgrd2-peachpuff-sienna-v" spreadMethod="pad" x1="0%" x2="0%" y1="0%" y2="100%"><stop offset="0%" style="stop-color:peachpuff;  stop-opacity:0.84;"/><stop offset="100%" style="stop-color:sienna;  stop-opacity:1"/></linearGradient><linearGradient gradientUnits="objectBoundingBox" id="lgrd2-black-white" spreadMethod="pad" x1="0%" x2="100%" y1="0%" y2="100%"><stop offset="0%" stop-color="black"/><stop offset="100%" stop-color="white"/></linearGradient></defs><path d="M324,250A260.478991,260.478991,0,0,0,502,366A51735.4602898371,51735.4602898371,0,0,0,879,364A573.4484323785,573.4484323785,0,0,0,980,231A2721.134464,2721.134464,0,0,1,314,205Z" style="fill:silver;stroke:black;" stroke-width="1" id="e1_path"/><path d="M465,228L497,7L510,8L499,16L471,221Z" style="fill:black;stroke:black;" stroke-width="1" id="e3_path"/><path d="M323,251L955,273L983,230A2958.5968887461,2958.5968887461,0,0,1,314,204A168.8308406588,168.8308406588,0,0,0,324,253Z" style="fill:white;stroke:black;" stroke-width="1" id="e4_path"/><path d="M738,235L757,90L936,90L933,231ZM777,109L920,109L919,147L767,148L776,110Z" style="fill:white;stroke:black;" stroke-width="1" id="e5_path"/></svg>