<svg xmlns="http://www.w3.org/2000/svg" xmlns:xlink="http://www.w3.org/1999/xlink" width="1330px" height="870px" viewBox="0 0 1330 870" preserveAspectRatio="xMidYMid meet" ><rect id="svgEditorBackground" x="0" y="0" width="1330" height="870" style="fill: none; stroke: none;"/><defs id="svgEditorDefs"><path id="svgEditorClosePathDefs" style="stroke:black;stroke-width:1px;fill:blue;"/></defs><polyline style="stroke:black;fill:black;stroke-width:1px;" id="e2_polyline" points="279 854 308 544 400 544 426 852.5" /><rect x="585.0116577148891" y="114.25279998779999" style="fill:silver;stroke:black;stroke-width:1px;" id="e7_rectangle" width="14" height="45" ry="0" rx="0" /><polyline style="stroke:black;fill:black;stroke-width:1px;" id="e5_polyline" points="715 850 735 541 834 540 866 848.5" /><rect x="205" y="418" style="fill:black;stroke:black;stroke-width:1px;" id="e3_rectangle" width="729" height="137" ry="0" rx="0" /><polygon style="stroke: black; fill:black; stroke-width: 1px;" id="e4_polygon" points="494.012 425.253 545.012 155.253 638.012 155.253 689.012 423.253" /><circle id="e5_circle" cx="594.0116577148891" cy="202.25280761719452" style="fill:white;stroke:black;stroke-width:1px;" r="12.2933" /><circle id="e1_circle" cx="592.0116577148891" cy="276.25280761719455" style="fill:white;stroke:black;stroke-width:1px;" r="18.3166" /><circle id="e2_circle" cx="589.0116577148891" cy="365.25280761719455" style="fill:white;stroke:black;stroke-width:1px;" r="24.4261" /><rect x="248.012" y="503.253" style="fill:white;stroke:black;stroke-width:1px;" id="e6_rectangle" width="668" height="31" ry="0" rx="0" /><path d="M168.0116424561,849.2528076172c12.070053301800016,-8.48726866130005,106.45240091779999,-16.99330640779999,143.0000152587,-13c36.54761434100004,3.993306407699947,109.27768302690004,20.716585284499956,151,17c41.72231697310002,-3.7165852846000007,144.84026676580004,-18.53137297010005,184,-17c39.159733234200075,1.5313729701000511,95.36112805929997,14.087807176999945,129,7c33.63887194080007,-7.0878071770999895,123.66390685090005,-14.600619249200008,151,-8c27.336093149199996,6.600619249099964,82.79804934419997,20.973319379500026,67,32c-15.798049344199967,11.026680620499974,-144.6377306851,21.132363772400026,-184,16c-39.362269314900004,-5.132363772400026,-105.41500589589998,-18.141042491000007,-134,-16c-28.58499410410002,2.1410424910000074,-70.17372621920003,7.680802591100019,-94,12c-23.826273780700035,4.319197408899981,-73.96853648249999,14.545670502000007,-99,9c-25.03146351739997,-5.545670502000007,-74.05362392909996,-31.60349238720005,-105,-25c-30.9463760708,6.603492387200049,-51.9916587862906,23.316096467085913,-154.0000152587,11c-26.008356472499997,-6.316096467200055,-67.07005330179999,-16.512731338799995,-55,-25Z" style="stroke:black;fill:navy;opacity:0.7;stroke-width:1px;" id="e9_area3"/></svg>