<svg xmlns:dc="http://purl.org/dc/elements/1.1/" 
	xmlns:cc="http://creativecommons.org/ns#" 
	xmlns:rdf="http://www.w3.org/1999/02/22-rdf-syntax-ns#" 
	xmlns="http://www.w3.org/2000/svg" viewBox="0 0 265.333 268" height="268" width="265.3330078125" xml:space="preserve" id="svg2" version="1.1" 
	xmlns:xlink="http://www.w3.org/1999/xlink">
	<rect id="svgEditorBackground" x="0" y="0" width="265.3330078125" height="268" style="fill:none;stroke:none;"/>
	<metadata id="metadata8">
		<rdf:RDF>
			<cc:Work rdf:about="">
				<dc:format>image/svg+xml</dc:format>
				<dc:type rdf:resource="http://purl.org/dc/dcmitype/StillImage"/>
			</cc:Work>
		</rdf:RDF>
	</metadata>
	<defs id="defs6"/>
	<g transform="matrix(1.3333333,0,0,-1.3333333,0,268)" id="g10">
		<g transform="scale(0.1)" id="g12">
			<path id="path52" style="fill:#2491eb;fill-opacity:1;fill-rule:evenodd;stroke:none" d="m 1152.92,868.059 c 193.63,66.711 332.74,250.451 332.74,466.731 0,31.39 -2.93,62.09 -8.53,91.84 -22.64,-16.34 -49.67,-26.94 -78.98,-29.7 3.08,-20.26 4.67,-41.01 4.67,-62.14 0,-175.91 -110.59,-325.97 -266.03,-384.497 10.57,-21.457 16.51,-45.598 16.51,-71.125 0,-3.73 -0.13,-7.438 -0.38,-11.109 z M 1318.3,1705.2 c -86.97,76.66 -201.16,123.18 -326.226,123.18 -122.191,0 -233.996,-44.42 -320.195,-117.98 26.059,-12.01 48.359,-30.77 64.684,-54.02 70.125,55.81 158.917,89.16 255.511,89.16 98.886,0 189.626,-34.94 260.516,-93.16 16.75,22.93 39.39,41.28 65.71,52.82 z M 508.551,1434.34 c -6.594,-32.15 -10.067,-65.45 -10.067,-99.55 0,-216.28 139.121,-400.02 332.75,-466.731 -0.25,3.671 -0.39,7.379 -0.39,11.109 0,25.527 5.945,49.668 16.519,71.125 -155.449,58.527 -266.039,208.587 -266.039,384.497 0,23.46 1.973,46.44 5.762,68.82 -29.219,3.15 -56.117,14.1 -78.535,30.73"/>
			<path id="path54" style="fill:#2491eb;fill-opacity:1;fill-rule:evenodd;stroke:none" d="m 992.074,792.879 c 47.656,0 86.286,38.633 86.286,86.289 0,47.656 -38.63,86.289 -86.286,86.289 -47.656,0 -86.285,-38.633 -86.285,-86.289 0,-47.656 38.629,-86.289 86.285,-86.289"/>
			<path id="path56" style="fill:#2491eb;fill-opacity:1;fill-rule:evenodd;stroke:none" d="m 1382.89,1471.15 c 47.66,0 86.29,38.64 86.29,86.29 0,47.66 -38.63,86.29 -86.29,86.29 -47.66,0 -86.29,-38.63 -86.29,-86.29 0,-47.65 38.63,-86.29 86.29,-86.29"/>
			<path id="path58" style="fill:#2491eb;fill-opacity:1;fill-rule:evenodd;stroke:none" d="m 604.492,1477.61 c 47.656,0 86.289,38.64 86.289,86.29 0,47.66 -38.633,86.29 -86.289,86.29 -47.656,0 -86.289,-38.63 -86.289,-86.29 0,-47.65 38.633,-86.29 86.289,-86.29"/>
			<path id="path60" style="fill:#2491eb;fill-opacity:1;fill-rule:evenodd;stroke:none" d="m 1016.9,1290.55 c 45.1,-11.12 78.56,-51.85 78.56,-100.38 0,-57.11 -46.29,-103.4 -103.397,-103.4 -57.106,0 -103.399,46.29 -103.399,103.4 0,50.34 35.988,92.27 83.633,101.49 1.641,6.7 3.34,13.24 5.109,19.59 0.063,35.69 -45.797,119.45 -73.211,143.43 h -58.601 v 58.58 h 58.601 v -47.07 c 28.852,-21.54 66.668,-71.4 89.61,-105.07 42.235,109.83 105.125,155.66 151.645,181.24 v 60.52 h 72.38 v -72.38 h -72.38 c -26.13,-3.64 -120.6,-122.49 -128.55,-239.95 z m 73.4,291.65 h 37.93 v -37.92 h -37.93 z m 130.97,-106.84 h -41.35 v 41.35 h 41.35 z m -103.39,10.33 h 44.81 v -44.8 h -44.81 z m -82.72,72.39 h 44.8 v -44.81 h -44.8 z m -248.148,-55.15 h 41.351 v -41.36 h -41.351 z m 82.715,72.38 h 34.468 v -34.47 h -34.468 z m -106.856,20.67 h 75.832 v -75.82 h -75.832 z m 229.192,-364.46 c 22.837,0 41.357,-18.51 41.357,-41.35 0,-22.85 -18.52,-41.37 -41.357,-41.37 -22.84,0 -41.36,18.52 -41.36,41.37 0,22.84 18.52,41.35 41.36,41.35"/>
			<path id="path62" style="fill:#333333;fill-opacity:1;fill-rule:evenodd;stroke:none" d="m 992.074,2000.27 c 368.886,0 667.936,-299.05 667.936,-667.94 0,-368.889 -299.05,-667.928 -667.936,-667.928 -368.89,0 -667.929,299.039 -667.929,667.928 0,368.89 299.039,667.94 667.929,667.94 z m 0,-86.74 c 170.966,0 324.676,-73.83 431.026,-191.34 74.23,-18.06 129.35,-84.98 129.35,-164.75 0,-16.55 -2.37,-32.56 -6.8,-47.69 17.91,-55.93 27.62,-115.54 27.62,-177.42 0,-278.05 -195.27,-510.455 -456.15,-567.658 -31,-33.84 -75.55,-55.067 -125.046,-55.067 -49.492,0 -94.043,21.227 -125.047,55.067 -260.875,57.203 -456.144,289.608 -456.144,567.658 0,64.96 10.66,127.42 30.32,185.74 -4.086,14.58 -6.269,29.95 -6.269,45.83 0,81.02 56.867,148.79 132.847,165.57 106.047,113.26 256.891,184.06 424.293,184.06"/>
		</g>
	</g>
</svg>