<?xml version="1.0" encoding="iso-8859-1"?>
<!-- Generator: Adobe Illustrator 19.0.0, SVG Export Plug-In . SVG Version: 6.00 Build 0)  -->
<svg version="1.1" id="Capa_1" xmlns="http://www.w3.org/2000/svg" xmlns:xlink="http://www.w3.org/1999/xlink" x="0px" y="0px"
	 viewBox="0 0 488 488" style="enable-background:new 0 0 488 488;" xml:space="preserve">
<g>
	<g>
		<path d="M483.82,350.32l-24-112c-0.639-2.984-2.922-5.342-5.883-6.078l-61.844-15.469L364,188.687V63.752
			c5.167-6.843,7.974-15.178,8-23.753c0.057-22.034-17.758-39.942-39.792-40c-12.846-0.033-24.923,6.121-32.445,16.534
			L67.469,32.016l0.001,0.011c-26.461,0.245-47.712,21.894-47.467,48.355c0.125,13.492,5.933,26.307,15.998,35.294V376H12
			c-4.416-0.003-7.997,3.575-8,7.991c0,0.003,0,0.006,0,0.009v88c-0.003,4.416,3.575,7.997,7.991,8c0.003,0,0.006,0,0.009,0h112
			c4.416,0.003,7.997-3.575,8-7.991c0-0.003,0-0.006,0-0.009v-88c0.003-4.416-3.575-7.997-7.991-8c-0.003,0-0.006,0-0.009,0h-24
			V118.42l200-44.444v114.711l-27.719,27.711l-61.273,7.664c-3.416,0.428-6.175,2.992-6.852,6.367l-24,120
			c-0.709,3.538,1.038,7.113,4.266,8.727l48,24c3.953,1.977,8.76,0.374,10.737-3.579c1.01-2.019,1.12-4.371,0.302-6.476
			l-14.445-37.18l21.328-57.984L317.695,248h28.609l67.351,29.938l21.328,57.984l-14.445,37.18
			c-1.599,4.121,0.446,8.758,4.568,10.357c2.103,0.816,4.453,0.706,6.472-0.302l48-24
			C482.843,357.524,484.588,353.888,483.82,350.32z M20,464v-52.524L53.425,464H20z M116,464H82.575L116,411.476V464z M109.425,392
			L68,457.102L26.575,392H109.425z M52,376V125.2c10.34,3.734,21.66,3.734,32,0V376H52z M68,112c-17.673,0-32-14.327-32-32
			s14.327-32,32-32s32,14.327,32,32C99.982,97.666,85.666,111.982,68,112z M111.876,99.385c8.122-18.259,4.024-39.643-10.273-53.605
			l191.101-12.736C292.265,35.338,292.03,37.665,292,40c0.044,6.395,1.641,12.683,4.653,18.324L111.876,99.385z M332,16
			c13.255,0,24,10.745,24,24s-10.745,24-24,24s-24-10.745-24-24C308.014,26.751,318.751,16.014,332,16z M348,76.609V184h-32V76.609
			C326.188,81.13,337.812,81.13,348,76.609z M442.961,359.57L451,338.898c0.703-1.817,0.719-3.828,0.047-5.656l-23.539-64
			c-0.745-2.031-2.281-3.675-4.258-4.555l-72-32c-1.024-0.453-2.131-0.687-3.25-0.688h-32c-1.119,0-2.226,0.234-3.25,0.688l-72,32
			c-1.977,0.88-3.513,2.523-4.258,4.555l-23.539,64c-0.672,1.828-0.656,3.839,0.047,5.656l8.039,20.672l-23.992-11.992
			l21.664-108.352l58.281-7.289c1.765-0.22,3.407-1.023,4.664-2.281L311.313,200h41.375l29.656,29.656
			c1.027,1.024,2.312,1.751,3.719,2.102l59.156,14.797l21.664,101.063L442.961,359.57z"/>
	</g>
</g>
<g>
	<g>
		<circle cx="68" cy="80" r="16"/>
	</g>
</g>
<g>
	<g>
		<path d="M406.758,336.532l-9.594-4.234c-0.328-1.148-0.672-2.273-1.047-3.375l5.352-9.227c1.414-2.443,1.438-5.449,0.063-7.914
			c-2.939-5.24-6.444-10.142-10.453-14.617c-1.937-2.184-4.915-3.132-7.758-2.469l-10.078,2.305
			c-0.852-0.656-1.719-1.297-2.602-1.914l-0.984-10.727c-0.293-3.153-2.415-5.837-5.414-6.852l-15.141-5.094
			c-3.083-1.036-6.486-0.104-8.609,2.359l-7.102,8.234h-2.781l-7.086-8.227c-2.121-2.466-5.525-3.402-8.609-2.367l-15.148,5.094
			c-3.003,1.011-5.128,3.697-5.422,6.852l-0.984,10.727c-0.883,0.625-1.75,1.266-2.594,1.914l-10.086-2.305
			c-2.843-0.66-5.819,0.287-7.758,2.469c-4.005,4.475-7.51,9.374-10.453,14.609c-1.375,2.467-1.351,5.476,0.063,7.922l5.352,9.227
			c-0.375,1.102-0.719,2.227-1.047,3.375l-9.594,4.234c-2.902,1.277-4.775,4.149-4.773,7.32v16.297
			c-0.002,3.171,1.871,6.043,4.773,7.32l9.594,4.234c0.328,1.148,0.672,2.273,1.047,3.375l-5.352,9.227
			c-1.577,2.721-1.415,6.114,0.414,8.672l9.438,13.188c1.872,2.634,5.15,3.875,8.297,3.141L290.758,407
			c0.852,0.656,1.719,1.297,2.602,1.914l0.984,10.727c0.293,3.153,2.415,5.837,5.414,6.852l15.141,5.094
			c3.083,1.037,6.486,0.105,8.609-2.359l7.102-8.234h2.781l7.086,8.227c2.123,2.464,5.525,3.399,8.609,2.367l15.148-5.094
			c3.003-1.011,5.128-3.697,5.422-6.852l0.984-10.727c0.883-0.625,1.75-1.266,2.594-1.914l10.086,2.305
			c2.843,0.664,5.821-0.284,7.758-2.469c4.005-4.474,7.507-9.373,10.445-14.609c1.381-2.465,1.361-5.476-0.055-7.922l-5.352-9.227
			c0.375-1.102,0.719-2.227,1.047-3.375l9.594-4.234c2.902-1.277,4.775-4.149,4.773-7.32v-16.297
			C411.533,340.681,409.66,337.809,406.758,336.532z M387.148,358.633c-2.318,1.019-4.014,3.077-4.57,5.547
			c-0.651,2.929-1.545,5.798-2.672,8.578c-0.954,2.301-0.78,4.915,0.469,7.07l4.875,8.406c-0.977,1.492-2.021,2.953-3.133,4.383
			l-9.141-2.094c-2.51-0.59-5.15,0.077-7.078,1.789c-2.214,1.945-4.587,3.701-7.094,5.25c-2.13,1.323-3.518,3.566-3.75,6.063
			l-0.859,9.359l-5.109,1.719l-5.969-6.93c-1.52-1.765-3.733-2.78-6.062-2.781h-10.109c-2.325,0-4.536,1.013-6.055,2.773
			l-5.984,6.938l-5.102-1.719l-0.859-9.359c-0.233-2.5-1.624-4.747-3.758-6.07c-2.506-1.544-4.877-3.297-7.086-5.242
			c-1.929-1.711-4.568-2.378-7.078-1.789l-8.727,2l-3.336-4.656l4.664-8.039c1.249-2.155,1.422-4.769,0.469-7.07
			c-1.127-2.78-2.021-5.65-2.672-8.578c-0.557-2.47-2.253-4.528-4.57-5.547l-8.383-3.695v-5.875l8.383-3.695
			c2.318-1.019,4.014-3.077,4.57-5.547c0.651-2.929,1.545-5.798,2.672-8.578c0.954-2.301,0.78-4.915-0.469-7.07l-4.875-8.406
			c0.977-1.492,2.021-2.953,3.133-4.383l9.141,2.094c2.51,0.585,5.148-0.082,7.078-1.789c2.214-1.945,4.587-3.701,7.094-5.25
			c2.13-1.323,3.518-3.566,3.75-6.063l0.859-9.359l5.109-1.719l5.969,6.93c1.52,1.765,3.733,2.78,6.063,2.781h10.109
			c2.325,0,4.536-1.013,6.055-2.773l5.984-6.938l5.102,1.719l0.859,9.359c0.233,2.5,1.624,4.747,3.758,6.07
			c2.506,1.544,4.877,3.297,7.086,5.242c1.93,1.708,4.568,2.375,7.078,1.789l9.141-2.094c1.109,1.43,2.154,2.891,3.133,4.383
			l-4.875,8.406c-1.249,2.155-1.422,4.769-0.469,7.07c1.127,2.78,2.021,5.65,2.672,8.578c0.557,2.47,2.253,4.528,4.57,5.547
			l8.383,3.695l0,5.875L387.148,358.633z"/>
	</g>
</g>
<g>
	<g>
		<path d="M332,312c-22.091,0-40,17.909-40,40c0,22.091,17.909,40,40,40c22.091,0,40-17.909,40-40
			C371.974,329.919,354.081,312.026,332,312z M332,376c-13.255,0-24-10.745-24-24s10.745-24,24-24s24,10.745,24,24
			C355.986,365.249,345.249,375.986,332,376z"/>
	</g>
</g>
<g>
	<g>
		<rect x="436" y="472" width="16" height="16"/>
	</g>
</g>
<g>
	<g>
		<rect x="468" y="472" width="16" height="16"/>
	</g>
</g>
<g>
</g>
<g>
</g>
<g>
</g>
<g>
</g>
<g>
</g>
<g>
</g>
<g>
</g>
<g>
</g>
<g>
</g>
<g>
</g>
<g>
</g>
<g>
</g>
<g>
</g>
<g>
</g>
<g>
</g>
</svg>
